<?xml version="1.0" encoding="utf-8"?>
<!-- Generator: Adobe Illustrator 15.1.0, SVG Export Plug-In . SVG Version: 6.00 Build 0)  -->
<!DOCTYPE svg PUBLIC "-//W3C//DTD SVG 1.1//EN" "http://www.w3.org/Graphics/SVG/1.1/DTD/svg11.dtd">
<svg version="1.1" id="Layer_1" xmlns="http://www.w3.org/2000/svg" xmlns:xlink="http://www.w3.org/1999/xlink" x="0px" y="0px"
	 width="100px" height="91.373px" viewBox="0 0 100 91.373" enable-background="new 0 0 100 91.373" xml:space="preserve">
<path fill="#010101" d="M98.946,37.689c1.182-3.906,1.086-7.146-0.188-9.625c-1.148-2.236-2.917-3.579-4.562-4.656
	c-1.155-4.31-4.223-7.962-9.125-9.406c-1.34-2.132-2.926-3.993-4.938-5.344c-1.994-1.34-4.422-2.066-7.031-2.093
	c-4.575-4.175-9.587-6.385-14.655-6.562c-0.18-0.007-0.352,0.001-0.531,0c-2.705-0.014-5.439,0.584-8.094,1.688
	c-2.847-0.8-6.851-1.814-11.687,0.5c-3.042-0.514-6.119,0.522-8.688,2.656c-1.926-0.228-3.755,0.104-5.25,0.844
	c-1.662,0.823-2.898,2.01-4,3.187c-5.395,1.732-8.77,4.235-10.812,7.031c-2.003,2.741-2.828,5.393-3.875,7.562
	c-1.929,1.46-3.754,3.337-4.719,6.031c-1.035,2.891-1.06,6.454-0.062,11.031c-0.626,5.734,0.439,10.399,3.5,13.438
	c2.904,2.883,7.152,3.768,11.875,3.375c3.562,2.33,8.167,2.476,13.156,1.688c2.704,1.859,5.833,3.366,9.531,4.155
	c1.049,3.191,1.77,6.51,3.125,9.688c1.535,3.602,4.196,7.046,8.843,8.906c2.521,1.01,4.688,3.234,6.031,5.031
	c0.007,0.009,0.024,0.022,0.031,0.031c0.771,1.238,1.223,2.229,2.469,3.188c1.309,1.006,2.834,1.195,4.562,1.312
	c4.545,0.289,8.046-1.693,10.655-3.812V87.5c0.117-0.095,0.246-0.174,0.344-0.281c0.414-0.455,0.598-0.982,0.688-1.375
	c0.179-0.786,0.092-1.25-0.031-1.844c-0.246-1.189-0.824-2.812-2.219-5.875c-0.077-0.169-0.14-0.352-0.219-0.531
	c1.2-0.03,2.371-0.243,3.5-0.531c4.076-1.04,7.664-3.288,10.062-5.062c3.867-2.861,6.479-5.066,8.062-7.406
	c1.807-2.671,2.562-7.659,1.312-10.593c0.435-0.353,0.839-0.732,1.218-1.156C100.387,49.308,100.679,44.029,98.946,37.689z
	 M64.229,85.782c-1.098-0.076-1.434-0.143-1.5-0.156c0.047,0.025-0.387-0.533-1.281-1.938c-0.035-0.058-0.086-0.102-0.125-0.156
	c-1.695-2.273-4.438-5.292-8.469-6.906c-3.241-1.297-4.549-3.121-5.75-5.938c-0.81-1.898-1.511-4.301-2.281-6.875
	c1.01-0.004,2.045-0.08,3.125-0.188c1.933,0.702,4.306,1.879,7.438,2c1.661,0.064,4.371-0.923,6.469-1.906
	c-0.244,3.453,0.369,6.955,2.375,9.656c0.537,0.724,1.125,1.369,1.78,1.906c0.74,1.854,1.498,3.609,2.188,5.125
	c0.86,1.89,1.248,2.997,1.5,3.75C68.061,85.301,66.488,85.922,64.229,85.782z M90.104,61.376c-1.021,1.429-3.154,3.448-6.812,6.155
	c-2.014,1.49-5.257,3.424-8.125,4.156c-1.434,0.365-2.726,0.425-3.75,0.188c-4.131-1.368-4.903-7.719-3.438-11.249
	c1.836-0.663,3.537-1.793,5.156-3.312c1.164,0.561,2.386,1.052,3.812,1.219c1.947,0.229,4.14-0.276,6.094-1.531
	c2.82,0.144,5.402-0.02,7.688-0.562C91.428,58.064,91.408,59.832,90.104,61.376z M93.01,49.126
	c-1.379,1.543-4.377,2.541-9.344,2.344c-0.323-2.186-0.406-3.264-0.375-3.469c0.016-0.104-0.023-0.031,0.062-0.156
	s0.339-0.409,0.719-0.844c0.712-0.783,0.648-1.99-0.141-2.696c-0.355-0.318-0.818-0.493-1.297-0.491
	c-0.568,0.003-1.105,0.255-1.469,0.688c-0.354,0.404-0.652,0.727-0.969,1.188s-0.621,1.113-0.719,1.75
	c-0.195,1.272,0.066,2.379,0.406,4.656c0.002,0.105,0.012,0.209,0.031,0.312c-0.857,0.579-1.502,0.689-2.312,0.594
	c-0.966-0.113-2.184-0.66-3.5-1.469c-1.121-0.691-2.759-0.456-3.625,0.531c-2.187,2.492-3.506,3.341-5.343,3.594
	c-0.029-0.054-0.061-0.105-0.094-0.156c-0.565-1.075-0.809-1.627-0.875-1.969s-0.054-0.73,0.281-1.875
	c0.312-1.008-0.258-2.076-1.274-2.386c-0.204-0.062-0.418-0.091-0.632-0.083c-0.852,0.02-1.588,0.592-1.812,1.406
	c-0.407,1.393-0.562,2.558-0.344,3.688s0.697,1.949,1.25,3c0.02,0.043,0.04,0.084,0.062,0.125c-2.683,2.314-4.466,2.719-6.094,2.656
	c-1.49-0.058-3.159-0.734-5.094-1.438c0.025-0.176,0.025-0.355,0-0.531c-0.397-3.291-0.159-4.718,0.188-5.438
	c0.346-0.72,1.041-1.2,2.375-2.375c0.821-0.67,0.939-1.873,0.265-2.688c-0.407-0.49-1.033-0.748-1.671-0.688
	c-0.432,0.033-0.838,0.209-1.156,0.5c-1.125,0.991-2.466,1.834-3.312,3.594c-0.814,1.692-0.938,3.839-0.562,7.188
	c-6.685,0.527-10.909-1.276-14.781-4.125c0.016-0.082,0.026-0.166,0.031-0.25c0.19-1.729,0.526-2.121,0.812-2.375
	s0.984-0.525,2.219-1.062c0.974-0.424,1.417-1.549,0.99-2.515c-0.317-0.718-1.044-1.171-1.834-1.142
	c-0.237,0.01-0.47,0.062-0.688,0.156c-0.968,0.422-2.108,0.677-3.25,1.688c-1.142,1.01-1.819,2.633-2.062,4.844
	c-0.015,0.072-0.025,0.146-0.031,0.219c-4.448,0.641-7.589,0.174-9.343-1.25c-0.587-0.476-1.374-0.719-2.125-0.625
	c-4.208,0.535-6.86-0.216-8.375-1.719s-2.463-4.321-1.844-9.312c0.015-0.118,0.032-0.225,0.031-0.344
	c0.33-0.113,0.654-0.188,0.938-0.219c0.849-0.093,1.637,0.061,2.938,0.875c0.863,0.616,2.066,0.422,2.688-0.434
	s0.425-2.05-0.438-2.666c-0.061-0.044-0.123-0.083-0.188-0.119c-1.353-0.847-2.735-1.354-4.093-1.469
	c-0.453-0.038-0.898-0.049-1.344,0c-0.393,0.043-0.783,0.152-1.156,0.25c-0.28-2.396-0.074-4.053,0.344-5.219
	c0.436-1.218,1.114-2.097,2.156-2.969c1.077,0.875,2.789,2.271,5.25,2.969c1.677,0.476,3.677,0.602,5.969,0.156
	c0.136,0.004,0.272-0.007,0.406-0.031c0.336-0.065,0.662-0.16,0.969-0.281c0.01-0.002-0.01-0.028,0-0.031
	c0.651-0.185,1.341-0.405,2.031-0.688c3.072-1.255,5.064-1.105,6.468-0.625s2.292,1.369,2.875,2.062
	c0.679,0.813,1.893,0.927,2.713,0.253c0.82-0.673,0.935-1.878,0.256-2.691c-0.798-0.95-2.268-2.455-4.594-3.25
	c-1.747-0.597-3.963-0.759-6.531-0.156c0.103-1.384-0.022-2.585,0-2.906c0.086-1.05-0.703-1.972-1.762-2.058
	c-0.079-0.006-0.159-0.008-0.238-0.004c-0.995,0.04-1.794,0.826-1.844,1.812c-0.091,1.298,0.12,2.549-0.031,3.5
	c-0.076,0.476-0.247,0.773-0.375,0.938c-0.059,0.076-0.103,0.164-0.188,0.219c-2.154,0.603-3.753,0.465-5.062,0.094
	c-1.609-0.457-2.799-1.336-3.812-2.156c1.173-2.456,1.917-4.604,3.187-6.343c1.442-1.974,3.583-3.764,8.625-5.25
	c0.496-0.146,0.937-0.43,1.281-0.812c1.044-1.161,2.037-2.023,2.875-2.438c0.666-0.33,1.234-0.487,2.094-0.344
	c0.614,1.256,1.532,2.576,2.25,4.094c0.006,0.073,0.017,0.146,0.031,0.219c0.133,0.648-0.008,0.83-0.469,1.281
	s-1.306,0.891-2.031,1.188c-0.983,0.411-1.444,1.534-1.03,2.51c0.414,0.975,1.547,1.432,2.53,1.021c0.942-0.385,2.175-0.947,3.25-2
	c0.624,0.534,1.312,0.877,1.969,1.031c1.405,0.329,2.641,0.134,3.094,0.125c1.062,0.04,1.956-0.782,1.997-1.835
	c0.04-1.054-0.789-1.94-1.851-1.98c-0.07-0.002-0.139-0.001-0.208,0.003c-0.897,0.018-1.669,0.076-2.125-0.031
	s-0.543-0.004-0.781-0.844c-0.695-2.459-2.024-4.529-2.75-5.688c1.965-1.905,3.289-2.219,5-1.688
	c0.735,0.229,1.549,0.129,2.219-0.25c3.448-1.969,5.104-1.515,7.562-0.75c-0.075,0.936-0.017,2.014,0.125,3.281
	c0.288,2.563,0.917,5.789,1.75,8.719c0.12,0.423-0.029,1.9-0.75,3c-0.72,1.1-1.714,1.871-3.344,1.875
	c-1.062-0.057-1.969,0.75-2.026,1.802c-0.058,1.053,0.756,1.953,1.817,2.01c0.07,0.004,0.14,0.004,0.209,0
	c2.991-0.007,5.321-1.682,6.594-3.625c0.952-1.454,1.469-3.019,1.438-4.562c0.572,0.153,1.125,0.273,1.594,0.344
	c1.053,0.154,2.031-0.567,2.188-1.612c0.155-1.044-0.572-2.015-1.625-2.169c-0.702-0.106-1.703-0.361-2.375-0.688
	s-0.722-0.541-0.719-0.5c-0.024-0.251-0.099-0.496-0.219-0.719c-0.318-1.541-0.578-3.061-0.719-4.312
	c-0.119-1.062-0.119-1.879-0.094-2.375c0.069-0.078,0.132-0.162,0.188-0.25c2.396-1.097,4.652-1.66,6.875-1.625
	c3.678,0.059,7.266,1.795,11.155,5.468c-0.022,0.041-0.043,0.083-0.062,0.125c-0.402,0.961-1.765,3.696-4.468,4.938
	c-0.966,0.445-1.385,1.583-0.936,2.541c0.448,0.958,1.594,1.374,2.56,0.928c4.146-1.904,5.875-5.667,6.406-6.938
	c0.04-0.102,0.071-0.206,0.094-0.312c1.536,0.003,2.725,0.415,3.875,1.188c1.045,0.702,2.08,1.756,3.031,3.156
	c-0.017,0.027-0.094,0.156-0.094,0.156c-0.072,0.098-0.135,0.203-0.188,0.312c0,0-0.208,0.477-0.406,0.906
	c-0.117,0.234-0.245,0.485-0.344,0.719c-0.342,0.651-0.77,1.378-1.281,2.031c-0.605,0.774-1.287,1.326-1.75,1.5
	s-0.676,0.247-1.438-0.312c-0.861-0.625-2.07-0.439-2.7,0.416c-0.63,0.854-0.442,2.053,0.419,2.678
	c1.596,1.172,3.58,1.383,5.094,0.812c0.59-0.223,1.095-0.559,1.562-0.906c0.398,1.002,0.953,1.998,1.625,3
	c0.532,0.913,1.709,1.225,2.63,0.697c0.92-0.528,1.234-1.696,0.702-2.608c-0.043-0.074-0.092-0.146-0.145-0.213
	c-0.988-1.474-1.458-2.527-1.562-3.406c-0.1-0.842,0.072-1.705,0.812-3.031c4.098,0.899,5.377,2.778,6.031,6.437
	c0.138,0.757,0.595,1.433,1.25,1.844c1.76,1.109,3.006,2.041,3.562,3.125c0.475,0.924,0.74,2.258,0.062,4.781
	c-0.795,0.506-2.248,0.728-3.688,0.625c-0.781-0.056-1.542-0.186-2.125-0.344s-1.064-0.434-0.938-0.344
	c-0.87-0.616-2.079-0.417-2.7,0.447c-0.622,0.863-0.42,2.062,0.45,2.678c0.687,0.486,1.322,0.68,2.156,0.906s1.82,0.394,2.875,0.469
	c1.18,0.084,2.484,0.066,3.75-0.25C94.966,44.679,94.401,47.568,93.01,49.126z"/>
<path fill="#010101" d="M32.924,37.686c-0.019,0.018-0.038,0.037-0.056,0.055c-1.327,1.31-3.536,2.962-4.951,3.291
	c-0.708,0.165-1.056,0.119-1.463-0.179c-0.408-0.297-1.021-1.079-1.463-2.853c-0.223-0.903-1.069-1.517-2.005-1.451
	c-0.974,0.069-1.741,0.852-1.784,1.819c-0.106,2.291-0.56,3.008-0.982,3.42c-0.422,0.412-1.212,0.665-2.436,1.302
	c-1.167,0.609-2.603,1.491-3.588,3.112c-0.563,0.895-0.289,2.072,0.613,2.631s2.089,0.285,2.652-0.609
	c0.011-0.018,0.022-0.035,0.032-0.053c0.472-0.777,1.098-1.186,2.085-1.7c0.782-0.407,2.098-0.758,3.337-1.968
	c0.295-0.288,0.563-0.623,0.802-0.994c0.151,0.137,0.287,0.297,0.451,0.417c1.413,1.03,3.167,1.163,4.62,0.825
	c2.906-0.675,5.236-2.765,6.796-4.305c0.768-0.729,0.795-1.938,0.061-2.699C34.91,36.984,33.692,36.957,32.924,37.686z"/>
<path fill="#010101" d="M78.182,40.183c-0.044-0.004-0.088-0.007-0.132-0.009c-0.438-0.029-1.544-0.283-2.165-0.577
	c-0.057-0.026-0.072-0.039-0.09-0.049c0.48-1.375,0.503-3.067-0.281-4.613c-0.878-1.731-2.551-3.212-5.152-4.623
	c-0.281-0.159-0.598-0.244-0.922-0.249c-1.062-0.015-1.937,0.828-1.951,1.882c-0.011,0.719,0.387,1.383,1.029,1.717
	c2.193,1.19,3.192,2.271,3.559,2.992c0.365,0.721,0.312,1.135,0.01,1.799c-0.604,1.329-2.773,3-4.06,3.837
	c-0.89,0.577-1.14,1.761-0.558,2.644c0.582,0.882,1.775,1.131,2.665,0.553c0.003-0.001,0.005-0.003,0.008-0.005
	c0.849-0.552,2.273-1.425,3.538-2.714c0.181,0.103,0.369,0.192,0.551,0.278c1.223,0.578,2.484,0.863,3.568,0.935
	c1.058,0.104,2.001-0.661,2.106-1.71C80.011,41.223,79.238,40.287,78.182,40.183z"/>
<path fill="#010101" d="M62.521,35.927c-0.051-0.015-0.104-0.027-0.156-0.037c-1.359-0.325-2.844-0.613-3.869-1.372
	c-0.383-0.283-0.744-0.608-1.032-1.074c-0.002-0.002,0.002-0.007,0-0.01c-0.062-0.229-0.168-0.445-0.311-0.636
	c-0.287-0.75-0.436-1.779-0.36-3.261c0.068-1.052-0.736-1.96-1.797-2.028c-0.083-0.005-0.166-0.005-0.248,0
	c-0.989,0.061-1.77,0.857-1.805,1.839c-0.102,2.017,0.215,3.721,0.812,5.1c0.314,1.434-0.182,2.5-0.953,3.251
	c-0.781,0.762-1.775,0.915-2.045,0.815c-0.968-0.433-2.108-0.005-2.545,0.956c-0.437,0.961-0.005,2.092,0.963,2.525
	c0.078,0.035,0.158,0.064,0.239,0.088c2.208,0.819,4.468-0.083,6.084-1.661c0.639-0.624,1.186-1.396,1.573-2.276
	c1.726,0.979,3.479,1.233,4.39,1.451c1.022,0.29,2.088-0.296,2.38-1.31C64.134,37.274,63.543,36.217,62.521,35.927z"/>
</svg>
